<svg xmlns="http://www.w3.org/2000/svg" viewBox="0 0 420 196" width="420" height="196" role="img" aria-labelledby="invt invd">
<title id="invt">Equipped: Primary: NestJS, Database: Postgres, Language: TypeScript, Companion: GRUB</title>
<desc id="invd">Tech stack as an RPG equipment screen</desc>
<defs><linearGradient id="invbg" x1="0" y1="0" x2="1" y2="1">
<stop offset="0" stop-color="#252c1c"/><stop offset="1" stop-color="#171b12"/>
</linearGradient></defs>
<style>
    .mono{font-family:ui-monospace,SFMono-Regular,Menlo,Consolas,"DejaVu Sans Mono",monospace}
    .lbl{font-size:9.5px;letter-spacing:1.6px;fill:#94a37d}
    .big{font-size:31px;font-weight:700;fill:#dfe6cf}
    .med{font-size:15px;font-weight:700;fill:#dfe6cf}
    .sm{font-size:11px;fill:#dfe6cf}
    .dim{font-size:11px;fill:#94a37d}
    
    .pulse{animation:pulse 3.4s ease-in-out infinite}
    @keyframes pulse{0%,100%{opacity:1}50%{opacity:.62}}
</style>
<rect width="420" height="196" rx="14" fill="url(#invbg)"/>
<rect x="0.75" y="0.75" width="418.5" height="194.5" rx="13.5" fill="none" stroke="#93ad78" stroke-opacity="0.35"/>
<text class="mono lbl" x="24" y="26">EQUIPPED SKILLS</text><text class="mono lbl" x="396" y="26" text-anchor="end" opacity="0.7">4/4</text><line x1="24" y1="36" x2="396" y2="36" stroke="#93ad78" stroke-opacity="0.25"/><rect x="24" y="49" width="9" height="9" fill="#94a37d"/><text class="mono lbl" x="43" y="58">PRIMARY</text><text class="mono sm" x="196" y="58" font-weight="700">NestJS</text><text class="mono dim" x="396" y="58" text-anchor="end" font-size="9" opacity="0.7">EQUIPPED</text><line x1="24" y1="67" x2="396" y2="67" stroke="#94a37d" stroke-opacity="0.14"/><rect x="24" y="79" width="9" height="9" fill="#94a37d"/><text class="mono lbl" x="43" y="88">DATABASE</text><text class="mono sm" x="196" y="88" font-weight="700">Postgres</text><text class="mono dim" x="396" y="88" text-anchor="end" font-size="9" opacity="0.7">EQUIPPED</text><line x1="24" y1="97" x2="396" y2="97" stroke="#94a37d" stroke-opacity="0.14"/><rect x="24" y="109" width="9" height="9" fill="#94a37d"/><text class="mono lbl" x="43" y="118">LANGUAGE</text><text class="mono sm" x="196" y="118" font-weight="700">TypeScript</text><text class="mono dim" x="396" y="118" text-anchor="end" font-size="9" opacity="0.7">EQUIPPED</text><line x1="24" y1="127" x2="396" y2="127" stroke="#94a37d" stroke-opacity="0.14"/><rect x="24" y="139" width="9" height="9" fill="#93ad78" class="pulse"/><text class="mono lbl" x="43" y="148">COMPANION</text><text class="mono sm" x="196" y="148" font-weight="700" fill="#93ad78">GRUB</text><text class="mono dim" x="396" y="148" text-anchor="end" font-size="9" opacity="0.7">EQUIPPED</text><line x1="24" y1="157" x2="396" y2="157" stroke="#94a37d" stroke-opacity="0.14"/>
</svg>
