<svg xmlns="http://www.w3.org/2000/svg" viewBox="0 0 540 300" width="540" height="300" role="img" aria-labelledby="pett petd">
<title id="pett">GRUB is thriving — 0 day(s) since the last commit, 0 resurrection(s)</title>
<desc id="petd">Look at you. Almost like a professional.</desc>
<defs><linearGradient id="petbg" x1="0" y1="0" x2="1" y2="1">
<stop offset="0" stop-color="#173d2b"/><stop offset="1" stop-color="#0d2018"/>
</linearGradient></defs>
<style>
    .mono{font-family:ui-monospace,SFMono-Regular,Menlo,Consolas,"DejaVu Sans Mono",monospace}
    .brand{font-size:17px;font-weight:700;letter-spacing:2px;fill:#e6fff2}
    .sub{font-size:10px;letter-spacing:1px;fill:#79c9a4}
    .say{font-size:12.5px;fill:#e6fff2}
    .stat{font-size:11px;fill:#79c9a4}
    .val{font-size:11px;fill:#e6fff2;font-weight:700}
    .lid{opacity:0;animation:blink 5.4s steps(1) infinite}
    .bubble{animation:breathe 3.2s ease-in-out infinite}
    .meter{animation:meterpulse 2.6s ease-in-out infinite}
    
    .spark{animation:twinkle 1.9s ease-in-out infinite}
    
    @keyframes blink{0%,93%{opacity:0}94%,97%{opacity:1}98%,100%{opacity:0}}
    @keyframes breathe{0%,100%{opacity:1}50%{opacity:.86}}
    @keyframes meterpulse{0%,100%{opacity:1}50%{opacity:.6}}
    @keyframes tear{0%,100%{opacity:0;transform:translateX(0)}12%{opacity:.55;transform:translateX(-4px)}18%{opacity:0}61%{opacity:.4;transform:translateX(5px)}67%{opacity:0}}
    @keyframes desat{0%,100%{filter:saturate(.35)}50%{filter:saturate(0) contrast(1.25)}}
    @keyframes twinkle{0%,100%{opacity:.25}50%{opacity:1}}
    @keyframes flash{0%{opacity:.8}100%{opacity:0}}
    @keyframes spin{to{transform:rotate(360deg)}}
</style>
<rect width="540" height="300" rx="14" fill="url(#petbg)"/>
<rect x="0.75" y="0.75" width="538.5" height="298.5" rx="13.5" fill="none" stroke="#5fd99a" stroke-opacity="0.35"/>
<text class="mono brand" x="26" y="32">GRUB</text><text class="mono sub" x="78" y="32">// THE TAMAGOTCHI OF SHAME</text><line x1="26" y1="44" x2="514" y2="44" stroke="#5fd99a" stroke-opacity="0.28"/><rect x="30" y="262" width="176" height="4" rx="2" fill="#1f5c40"/><g transform="translate(46 116)"><g><g><animateTransform attributeName="transform" type="translate" values="0 0; 0 -7; 0 0" keyTimes="0;0.5;1" dur="1.5s" repeatCount="indefinite" calcMode="spline" keySplines="0.4 0 0.2 1; 0.4 0 0.2 1" additive="sum"/><rect x="63" y="0" width="18" height="9" fill="#ffd24c"/><rect x="63" y="9" width="18" height="9" fill="#ffd24c"/><rect x="36" y="18" width="72" height="9" fill="#5fd99a"/><rect x="18" y="27" width="108" height="9" fill="#5fd99a"/><rect x="9" y="36" width="126" height="9" fill="#5fd99a"/><rect x="9" y="45" width="18" height="9" fill="#5fd99a"/><rect x="27" y="45" width="27" height="9" fill="#ffffff"/><rect x="54" y="45" width="36" height="9" fill="#5fd99a"/><rect x="90" y="45" width="27" height="9" fill="#ffffff"/><rect x="117" y="45" width="18" height="9" fill="#5fd99a"/><rect x="9" y="54" width="18" height="9" fill="#5fd99a"/><rect x="27" y="54" width="9" height="9" fill="#ffffff"/><rect x="36" y="54" width="9" height="9" fill="#0d2018"/><rect x="45" y="54" width="9" height="9" fill="#ffffff"/><rect x="54" y="54" width="36" height="9" fill="#5fd99a"/><rect x="90" y="54" width="9" height="9" fill="#ffffff"/><rect x="99" y="54" width="9" height="9" fill="#0d2018"/><rect x="108" y="54" width="9" height="9" fill="#ffffff"/><rect x="117" y="54" width="18" height="9" fill="#5fd99a"/><rect x="9" y="63" width="18" height="9" fill="#5fd99a"/><rect x="27" y="63" width="27" height="9" fill="#ffffff"/><rect x="54" y="63" width="36" height="9" fill="#5fd99a"/><rect x="90" y="63" width="27" height="9" fill="#ffffff"/><rect x="117" y="63" width="18" height="9" fill="#5fd99a"/><rect x="9" y="72" width="126" height="9" fill="#5fd99a"/><rect x="9" y="81" width="36" height="9" fill="#5fd99a"/><rect x="45" y="81" width="54" height="9" fill="#ff6f8f"/><rect x="99" y="81" width="36" height="9" fill="#5fd99a"/><rect x="9" y="90" width="45" height="9" fill="#5fd99a"/><rect x="54" y="90" width="36" height="9" fill="#ff6f8f"/><rect x="90" y="90" width="45" height="9" fill="#5fd99a"/><rect x="9" y="99" width="126" height="9" fill="#5fd99a"/><rect x="18" y="108" width="108" height="9" fill="#5fd99a"/><rect x="27" y="117" width="90" height="9" fill="#5fd99a"/><rect x="27" y="126" width="18" height="9" fill="#5fd99a"/><rect x="99" y="126" width="18" height="9" fill="#5fd99a"/><rect x="18" y="135" width="27" height="9" fill="#5fd99a"/><rect x="99" y="135" width="27" height="9" fill="#5fd99a"/><rect class="lid" x="27" y="45" width="27" height="27" fill="#5fd99a"/><rect class="lid" x="90" y="45" width="27" height="27" fill="#5fd99a"/><g class="spark"><rect x="-14" y="18" width="6" height="6" fill="#ffd24c"/><rect x="150" y="40" width="5" height="5" fill="#ffd24c"/><rect x="140" y="6" width="4" height="4" fill="#e6fff2"/></g></g></g></g><g class="bubble"><rect x="222" y="54" width="292" height="64" rx="10" fill="#0d2018" stroke="#5fd99a" stroke-opacity="0.55" stroke-width="1.5"/><path d="M244 118 L224 139 L276 118 Z" fill="#0d2018" stroke="#5fd99a" stroke-opacity="0.55" stroke-width="1.5"/><rect x="246" y="116" width="28" height="4" fill="#0d2018"/><text class="mono say" x="238" y="81">Look at you. Almost like a</text><text class="mono say" x="238" y="100">professional.</text></g><text class="mono stat" x="222" y="180">HUNGER</text><rect x="222" y="186" width="200" height="10" rx="3" fill="#0d2018" stroke="#79c9a4" stroke-opacity="0.4"/><text class="mono val" x="432" y="195">0%</text><text class="mono stat" x="222" y="214">DAYS SINCE COMMIT</text><text class="mono val" x="402" y="214">0</text><text class="mono stat" x="222" y="233">MOOD</text><text class="mono val" x="402" y="233">THRIVING</text><text class="mono stat" x="222" y="252">RESURRECTIONS</text><text class="mono val" x="402" y="252">0</text><text class="mono stat" x="222" y="277" opacity="0.7">checked 2026-07-30 UTC</text>
</svg>
